<?xml version="1.0" standalone="no"?>
<!DOCTYPE svg PUBLIC "-//W3C//DTD SVG 20010904//EN"
 "http://www.w3.org/TR/2001/REC-SVG-20010904/DTD/svg10.dtd">
<svg version="1.0" xmlns="http://www.w3.org/2000/svg"
 width="480.000000pt" height="480.000000pt" viewBox="0 0 480.000000 480.000000"
 preserveAspectRatio="xMidYMid meet">
<metadata>
Created by potrace 1.14, written by Peter Selinger 2001-2017
</metadata>
<g transform="translate(0.000000,480.000000) scale(0.100000,-0.100000)"
fill="#000000" stroke="none">
<path d="M2160 4789 c-265 -33 -491 -90 -690 -176 -175 -74 -428 -224 -555
-327 -398 -322 -673 -727 -815 -1201 -31 -106 -64 -253 -75 -345 -4 -30 -11
-82 -15 -115 -8 -64 -5 -443 5 -510 3 -22 10 -67 16 -100 6 -33 12 -69 14 -80
43 -254 180 -592 342 -840 147 -224 348 -444 548 -596 228 -175 514 -321 775
-397 169 -49 220 -60 420 -86 89 -12 488 -14 535 -3 11 2 43 8 70 11 28 4 66
10 85 12 189 27 501 135 710 247 74 39 316 194 342 220 7 7 26 23 43 36 71 55
222 201 294 285 205 240 345 477 451 766 30 84 83 272 94 340 3 19 8 49 12 65
22 117 31 260 28 445 -4 222 -4 232 -35 395 -71 387 -241 760 -486 1065 -60
75 -224 246 -298 311 -341 298 -766 492 -1235 565 -117 18 -472 26 -580 13z
m450 -752 c14 -3 48 -9 75 -13 64 -9 57 -8 149 -33 462 -127 838 -441 1054
-881 54 -109 57 -119 59 -198 2 -104 -17 -185 -51 -221 -35 -36 -117 -61 -202
-61 -73 0 -174 -21 -200 -42 -104 -84 -134 -143 -139 -274 -3 -85 -13 -151
-28 -179 -29 -57 -89 -84 -201 -91 -44 -3 -101 -9 -125 -15 -140 -32 -241
-146 -246 -279 -2 -30 0 -59 3 -65 4 -5 8 -19 9 -30 10 -61 96 -156 172 -190
65 -29 171 -27 234 4 107 52 166 146 173 270 11 237 68 294 302 305 105 6 186
50 241 132 34 52 48 107 55 220 5 89 33 164 70 190 20 14 21 13 27 -13 8 -34
3 -352 -6 -408 -48 -297 -169 -573 -347 -793 -90 -111 -150 -170 -279 -277
-85 -69 -236 -155 -404 -230 -58 -26 -228 -74 -330 -92 -97 -18 -373 -24 -481
-11 -73 9 -189 33 -224 46 -14 5 -29 10 -35 11 -34 4 -156 51 -250 96 -287
138 -527 356 -695 631 -41 65 -42 70 -32 113 30 131 -13 249 -119 327 -42 31
-47 39 -58 95 -20 100 -26 175 -26 324 0 167 8 241 41 377 113 468 421 861
847 1081 192 100 365 152 592 180 42 5 344 0 375 -6z"/>
<path d="M1780 3220 c-78 -21 -167 -96 -195 -164 -19 -45 -24 -76 -30 -185
-11 -189 -57 -229 -274 -236 -115 -3 -185 -33 -247 -103 -74 -84 -91 -221 -40
-321 89 -174 302 -222 454 -101 68 53 103 126 108 223 5 81 7 95 19 151 11 53
76 118 135 135 78 21 200 20 307 -3 28 -6 79 -43 97 -70 23 -36 37 -93 42
-166 6 -106 19 -162 44 -193 5 -6 21 -27 36 -45 28 -34 96 -79 136 -88 147
-36 292 26 352 149 92 186 -32 407 -237 423 -197 15 -184 13 -227 31 -34 15
-63 43 -78 76 -11 26 -16 65 -26 207 -8 99 -44 169 -118 227 -67 54 -174 75
-258 53z"/>
</g>
</svg>
